<?xml version="1.0" standalone="no"?>
<!DOCTYPE svg PUBLIC "-//W3C//DTD SVG 20010904//EN"
 "http://www.w3.org/TR/2001/REC-SVG-20010904/DTD/svg10.dtd">
<svg version="1.0" xmlns="http://www.w3.org/2000/svg"
 width="136.000000pt" height="160.000000pt" viewBox="0 0 136.000000 160.000000"
 preserveAspectRatio="xMidYMid meet">

<g transform="translate(0.000000,160.000000) scale(0.100000,-0.100000)"
fill="#000000" stroke="none">
<path d="M665 1579 c-51 -27 -89 -56 -142 -108 -47 -45 -54 -45 -22 0 25 35
19 36 -81 8 -115 -31 -205 -83 -283 -162 -38 -38 -67 -71 -64 -73 2 -3 20 4
38 15 38 23 163 71 182 71 6 0 -19 -17 -56 -37 -80 -43 -175 -130 -208 -193
-22 -41 -24 -56 -24 -185 0 -132 1 -143 26 -190 35 -66 130 -155 205 -193 77
-39 286 -123 292 -118 7 7 -46 117 -74 153 -38 50 -13 39 49 -21 62 -61 111
-152 129 -237 7 -33 15 -59 19 -59 12 0 79 160 95 227 19 81 14 199 -11 258
-26 61 -71 118 -126 160 -71 54 -103 112 -97 176 6 63 28 91 28 36 0 -74 32
-107 119 -126 61 -13 89 -46 112 -127 10 -37 23 -72 28 -77 15 -15 33 4 28 29
-7 36 12 29 29 -11 21 -51 70 -44 94 15 16 39 9 92 -31 216 -17 54 -34 133
-38 176 l-7 77 218 108 c120 59 216 108 214 110 -1 2 -105 -26 -230 -62 -124
-36 -229 -65 -231 -65 -3 0 -1 -10 6 -22 9 -19 7 -18 -13 4 -12 15 -43 39 -68
53 -42 23 -43 25 -17 25 16 0 27 5 27 14 0 7 11 34 25 61 l26 47 -28 -6 c-15
-4 -45 -19 -66 -32 -45 -30 -54 -27 -34 13 39 77 31 88 -38 52z m161 -383 c14
-11 16 -18 8 -26 -8 -8 -15 -4 -28 14 -18 29 -10 34 20 12z m-21 -288 c8 -21
11 -38 6 -38 -5 0 -12 13 -16 30 -3 16 -16 42 -27 57 l-21 28 21 -20 c12 -11
28 -37 37 -57z m67 -55 c8 -10 18 -25 22 -33 4 -8 0 -6 -8 5 -9 11 -24 26 -33
33 -9 6 -12 12 -6 12 5 0 17 -8 25 -17z m-217 -45 c35 -41 65 -105 65 -138 0
-17 -3 -21 -8 -12 -5 7 -16 10 -24 7 -30 -12 -93 30 -113 74 -17 39 -17 42 0
81 20 45 34 43 80 -12z"/>
<path d="M109 135 c-7 -33 -17 -55 -26 -55 -13 0 -16 14 -13 63 1 15 -3 27 -9
27 -13 0 -14 -79 -2 -99 5 -8 16 -11 25 -8 9 4 16 1 16 -5 0 -8 3 -8 9 -2 9
10 25 134 17 134 -2 0 -10 -25 -17 -55z"/>
<path d="M604 159 c-15 -16 -16 -23 -6 -37 23 -33 24 -43 6 -58 -18 -15 -18
-15 1 -8 11 4 34 8 52 8 18 1 38 7 44 14 19 18 28 15 22 -9 -5 -19 -4 -20 17
-9 18 9 24 9 30 0 5 -9 12 -6 23 9 13 20 16 21 30 6 9 -8 20 -15 24 -14 4 1
16 -1 26 -6 9 -4 23 -3 30 3 7 6 22 9 34 6 11 -3 24 -1 27 5 4 6 0 11 -8 11
-19 0 -21 16 -3 23 6 2 9 8 4 13 -4 4 -22 -8 -39 -27 -22 -24 -33 -30 -36 -20
-3 8 3 20 14 28 26 19 8 16 -22 -4 -21 -13 -27 -14 -34 -3 -4 7 -13 9 -19 6
-6 -4 -11 -1 -11 6 -1 7 -6 3 -13 -10 -14 -25 -29 -20 -20 6 4 15 3 15 -10 0
-17 -22 -27 -23 -27 -3 0 8 -5 15 -11 15 -6 0 -17 -7 -25 -15 -9 -8 -23 -15
-31 -15 -14 0 -14 3 2 20 16 17 16 20 2 20 -9 0 -19 -10 -23 -22 l-6 -21 -19
24 c-24 31 -24 37 4 60 17 14 18 18 6 19 -9 0 -24 -9 -35 -21z"/>
<path d="M1086 163 c-10 -37 -11 -106 -1 -110 6 -2 20 4 30 12 20 16 19 16 -2
10 -26 -7 -27 -3 -14 63 8 40 -2 61 -13 25z"/>
<path d="M1234 148 c-4 -12 -17 -31 -30 -41 -27 -21 -34 -60 -8 -50 8 3 13 12
10 19 -3 7 0 16 7 20 7 4 9 4 5 -1 -8 -8 20 -40 28 -32 3 3 0 14 -7 24 -9 15
-8 26 5 51 9 18 12 32 7 32 -5 0 -13 -10 -17 -22z"/>
<path d="M1152 144 c-16 -8 -19 -13 -10 -16 10 -4 10 -8 1 -19 -13 -16 -7 -59
8 -59 13 0 18 15 9 30 -5 8 -2 22 7 36 20 31 13 43 -15 28z"/>
<path d="M240 139 c0 -5 5 -7 10 -4 6 3 10 8 10 11 0 2 -4 4 -10 4 -5 0 -10
-5 -10 -11z"/>
<path d="M830 140 c0 -5 5 -10 10 -10 6 0 10 5 10 10 0 6 -4 10 -10 10 -5 0
-10 -4 -10 -10z"/>
<path d="M145 100 c-10 -12 -13 -20 -7 -20 7 0 12 -7 12 -17 0 -15 2 -15 19 1
13 12 21 14 26 6 5 -8 11 -8 22 1 11 10 16 10 22 0 4 -6 12 -11 17 -10 5 1 17
-1 27 -6 12 -5 24 -2 36 9 16 15 19 15 24 2 6 -16 29 -13 55 7 9 7 7 14 -9 28
-21 18 -22 18 -56 -11 -19 -17 -39 -27 -45 -24 -7 5 -4 13 10 25 33 27 26 33
-9 8 -25 -17 -33 -19 -39 -9 -7 11 -12 11 -26 -1 -13 -10 -18 -11 -21 -2 -2 7
-11 9 -20 6 -10 -4 -14 -2 -9 5 12 20 -11 22 -29 2z m233 -12 c-2 -6 -10 -14
-16 -16 -7 -2 -10 2 -6 12 7 18 28 22 22 4z"/>
<path d="M991 106 c-10 -12 -10 -16 -1 -16 10 0 10 -3 1 -14 -7 -8 -8 -17 -3
-20 16 -9 29 17 23 43 -6 21 -8 22 -20 7z"/>
<path d="M410 100 c0 -5 4 -10 9 -10 5 0 7 -10 4 -21 -6 -20 -4 -20 18 -8 14
7 19 14 11 17 -6 2 -12 10 -12 18 0 8 -7 14 -15 14 -8 0 -15 -4 -15 -10z"/>
<path d="M466 102 c-3 -5 -2 -18 1 -31 5 -20 7 -21 23 -6 12 11 20 13 25 5 3
-5 11 -8 16 -5 5 4 3 13 -6 21 -8 9 -19 12 -25 9 -5 -3 -10 -1 -10 4 0 13 -17
15 -24 3z"/>
</g>
</svg>
